<svg xmlns="http://www.w3.org/2000/svg" xmlns:xlink="http://www.w3.org/1999/xlink" width="500" zoomAndPan="magnify" viewBox="0 0 375 374.999991" height="500" preserveAspectRatio="xMidYMid meet" version="1.0"><defs><g/><clipPath id="f88f13a7b7"><path d="M 22 122 L 144 122 L 144 226 L 22 226 Z M 22 122 " clip-rule="nonzero"/></clipPath><clipPath id="a698eed9f7"><path d="M -9.078125 173.851562 L 112.136719 92.023438 L 167.949219 174.695312 L 46.734375 256.527344 Z M -9.078125 173.851562 " clip-rule="nonzero"/></clipPath><clipPath id="ce5779383f"><path d="M -9.078125 173.851562 L 112.136719 92.023438 L 167.949219 174.695312 L 46.734375 256.527344 Z M -9.078125 173.851562 " clip-rule="nonzero"/></clipPath><clipPath id="91c0222431"><path d="M -9.078125 173.851562 L 112.136719 92.023438 L 167.949219 174.695312 L 46.734375 256.527344 Z M -9.078125 173.851562 " clip-rule="nonzero"/></clipPath><clipPath id="b52dc6c911"><path d="M 18 118 L 148 118 L 148 230 L 18 230 Z M 18 118 " clip-rule="nonzero"/></clipPath><clipPath id="561d33bc35"><path d="M -9.078125 173.851562 L 112.136719 92.023438 L 167.949219 174.695312 L 46.734375 256.527344 Z M -9.078125 173.851562 " clip-rule="nonzero"/></clipPath><clipPath id="4663842cce"><path d="M -9.078125 173.851562 L 112.136719 92.023438 L 167.949219 174.695312 L 46.734375 256.527344 Z M -9.078125 173.851562 " clip-rule="nonzero"/></clipPath><clipPath id="311a44bbba"><path d="M -9.078125 173.851562 L 112.136719 92.023438 L 167.949219 174.695312 L 46.734375 256.527344 Z M -9.078125 173.851562 " clip-rule="nonzero"/></clipPath><clipPath id="9aa9741e02"><path d="M 36 136 L 132 136 L 132 218 L 36 218 Z M 36 136 " clip-rule="nonzero"/></clipPath><clipPath id="dc5d1e92ef"><path d="M -9.078125 173.851562 L 112.136719 92.023438 L 167.949219 174.695312 L 46.734375 256.527344 Z M -9.078125 173.851562 " clip-rule="nonzero"/></clipPath><clipPath id="317464f013"><path d="M -9.078125 173.851562 L 112.136719 92.023438 L 167.949219 174.695312 L 46.734375 256.527344 Z M -9.078125 173.851562 " clip-rule="nonzero"/></clipPath><clipPath id="5e3b77f01d"><path d="M -9.078125 173.851562 L 112.136719 92.023438 L 167.949219 174.695312 L 46.734375 256.527344 Z M -9.078125 173.851562 " clip-rule="nonzero"/></clipPath><clipPath id="698571e0ae"><path d="M 32 132 L 136 132 L 136 222 L 32 222 Z M 32 132 " clip-rule="nonzero"/></clipPath><clipPath id="b85e15ac26"><path d="M -9.078125 173.851562 L 112.136719 92.023438 L 167.949219 174.695312 L 46.734375 256.527344 Z M -9.078125 173.851562 " clip-rule="nonzero"/></clipPath><clipPath id="01f00d3a8a"><path d="M -9.078125 173.851562 L 112.136719 92.023438 L 167.949219 174.695312 L 46.734375 256.527344 Z M -9.078125 173.851562 " clip-rule="nonzero"/></clipPath><clipPath id="9bbae5be32"><path d="M -9.078125 173.851562 L 112.136719 92.023438 L 167.949219 174.695312 L 46.734375 256.527344 Z M -9.078125 173.851562 " clip-rule="nonzero"/></clipPath><clipPath id="151632b9ba"><path d="M 48 148 L 122 148 L 122 211 L 48 211 Z M 48 148 " clip-rule="nonzero"/></clipPath><clipPath id="e4c9fb6693"><path d="M -9.078125 173.851562 L 112.136719 92.023438 L 167.949219 174.695312 L 46.734375 256.527344 Z M -9.078125 173.851562 " clip-rule="nonzero"/></clipPath><clipPath id="0b63ea97f2"><path d="M -9.078125 173.851562 L 112.136719 92.023438 L 167.949219 174.695312 L 46.734375 256.527344 Z M -9.078125 173.851562 " clip-rule="nonzero"/></clipPath><clipPath id="9e5623edeb"><path d="M -9.078125 173.851562 L 112.136719 92.023438 L 167.949219 174.695312 L 46.734375 256.527344 Z M -9.078125 173.851562 " clip-rule="nonzero"/></clipPath><clipPath id="40ea258b8c"><path d="M 45 144 L 126 144 L 126 215 L 45 215 Z M 45 144 " clip-rule="nonzero"/></clipPath><clipPath id="6732d46f2b"><path d="M -9.078125 173.851562 L 112.136719 92.023438 L 167.949219 174.695312 L 46.734375 256.527344 Z M -9.078125 173.851562 " clip-rule="nonzero"/></clipPath><clipPath id="b79008fd6d"><path d="M -9.078125 173.851562 L 112.136719 92.023438 L 167.949219 174.695312 L 46.734375 256.527344 Z M -9.078125 173.851562 " clip-rule="nonzero"/></clipPath><clipPath id="a95d667dff"><path d="M -9.078125 173.851562 L 112.136719 92.023438 L 167.949219 174.695312 L 46.734375 256.527344 Z M -9.078125 173.851562 " clip-rule="nonzero"/></clipPath><clipPath id="05222e8096"><path d="M 62 162 L 111 162 L 111 203 L 62 203 Z M 62 162 " clip-rule="nonzero"/></clipPath><clipPath id="bf2d5c8725"><path d="M -9.078125 173.851562 L 112.136719 92.023438 L 167.949219 174.695312 L 46.734375 256.527344 Z M -9.078125 173.851562 " clip-rule="nonzero"/></clipPath><clipPath id="921a833dec"><path d="M -9.078125 173.851562 L 112.136719 92.023438 L 167.949219 174.695312 L 46.734375 256.527344 Z M -9.078125 173.851562 " clip-rule="nonzero"/></clipPath><clipPath id="f878cfe7fd"><path d="M -9.078125 173.851562 L 112.136719 92.023438 L 167.949219 174.695312 L 46.734375 256.527344 Z M -9.078125 173.851562 " clip-rule="nonzero"/></clipPath><clipPath id="f3be7ef536"><path d="M 59 158 L 114 158 L 114 207 L 59 207 Z M 59 158 " clip-rule="nonzero"/></clipPath><clipPath id="02d268a782"><path d="M -9.078125 173.851562 L 112.136719 92.023438 L 167.949219 174.695312 L 46.734375 256.527344 Z M -9.078125 173.851562 " clip-rule="nonzero"/></clipPath><clipPath id="f1e0247f1d"><path d="M -9.078125 173.851562 L 112.136719 92.023438 L 167.949219 174.695312 L 46.734375 256.527344 Z M -9.078125 173.851562 " clip-rule="nonzero"/></clipPath><clipPath id="2a7c2fab29"><path d="M -9.078125 173.851562 L 112.136719 92.023438 L 167.949219 174.695312 L 46.734375 256.527344 Z M -9.078125 173.851562 " clip-rule="nonzero"/></clipPath><clipPath id="020f1d8113"><path d="M 30 147 L 158 147 L 158 246 L 30 246 Z M 30 147 " clip-rule="nonzero"/></clipPath><clipPath id="30de891f11"><path d="M -9.078125 173.851562 L 112.136719 92.023438 L 167.949219 174.695312 L 46.734375 256.527344 Z M -9.078125 173.851562 " clip-rule="nonzero"/></clipPath><clipPath id="5747aa05a8"><path d="M -9.078125 173.851562 L 112.136719 92.023438 L 167.949219 174.695312 L 46.734375 256.527344 Z M -9.078125 173.851562 " clip-rule="nonzero"/></clipPath><clipPath id="842b43c8da"><path d="M -9.078125 173.851562 L 112.136719 92.023438 L 167.949219 174.695312 L 46.734375 256.527344 Z M -9.078125 173.851562 " clip-rule="nonzero"/></clipPath><clipPath id="c02f76b533"><path d="M 27 143 L 162 143 L 162 249 L 27 249 Z M 27 143 " clip-rule="nonzero"/></clipPath><clipPath id="f6768747fb"><path d="M -9.078125 173.851562 L 112.136719 92.023438 L 167.949219 174.695312 L 46.734375 256.527344 Z M -9.078125 173.851562 " clip-rule="nonzero"/></clipPath><clipPath id="72fb51be65"><path d="M -9.078125 173.851562 L 112.136719 92.023438 L 167.949219 174.695312 L 46.734375 256.527344 Z M -9.078125 173.851562 " clip-rule="nonzero"/></clipPath><clipPath id="fb64a58620"><path d="M -9.078125 173.851562 L 112.136719 92.023438 L 167.949219 174.695312 L 46.734375 256.527344 Z M -9.078125 173.851562 " clip-rule="nonzero"/></clipPath></defs><g clip-path="url(#f88f13a7b7)"><g clip-path="url(#a698eed9f7)"><g clip-path="url(#ce5779383f)"><g clip-path="url(#91c0222431)"><path fill="#ed5353" d="M 51.601562 133.5625 C 81.957031 113.074219 123.128906 121.011719 143.570312 151.289062 L 131.820312 159.21875 C 115.75 135.414062 83.378906 129.167969 59.511719 145.277344 C 35.652344 161.386719 29.335938 193.75 45.40625 217.554688 L 33.65625 225.488281 C 13.21875 195.210938 21.25 154.050781 51.601562 133.5625 " fill-opacity="1" fill-rule="evenodd"/></g></g></g></g><g clip-path="url(#b52dc6c911)"><g clip-path="url(#561d33bc35)"><g clip-path="url(#4663842cce)"><g clip-path="url(#311a44bbba)"><path stroke-linecap="butt" transform="matrix(0.119542, -0.0806989, -0.0805124, -0.119265, 47.251005, 257.80806)" fill="none" stroke-linejoin="miter" d="M 506.984806 698.715092 C 760.902411 698.693307 966.704682 492.887139 966.716653 239.013436 L 868.433752 239.027167 C 868.430966 438.623554 706.64092 600.467664 506.995253 600.482898 C 307.39448 600.467756 145.550767 438.621225 145.553552 239.024838 L 47.255497 239.01607 C 47.265974 492.874584 253.089648 698.721688 506.984806 698.715092 Z M 506.984806 698.715092 " stroke="#000000" stroke-width="6.802" stroke-opacity="1" stroke-miterlimit="2.613"/></g></g></g></g><g clip-path="url(#9aa9741e02)"><g clip-path="url(#dc5d1e92ef)"><g clip-path="url(#317464f013)"><g clip-path="url(#5e3b77f01d)"><path fill="#feb46b" d="M 59.511719 145.277344 C 83.378906 129.167969 115.75 135.414062 131.820312 159.21875 L 121.753906 166.015625 C 109.429688 147.757812 84.597656 142.964844 66.292969 155.324219 C 47.992188 167.675781 43.148438 192.5 55.472656 210.757812 L 45.40625 217.554688 C 29.335938 193.75 35.652344 161.386719 59.511719 145.277344 " fill-opacity="1" fill-rule="evenodd"/></g></g></g></g><g clip-path="url(#698571e0ae)"><g clip-path="url(#b85e15ac26)"><g clip-path="url(#01f00d3a8a)"><g clip-path="url(#9bbae5be32)"><path stroke-linecap="butt" transform="matrix(0.119542, -0.0806989, -0.0805124, -0.119265, 47.251005, 257.80806)" fill="none" stroke-linejoin="miter" d="M 506.995253 600.482898 C 706.64092 600.467664 868.430966 438.623554 868.433752 239.027167 L 784.220126 239.019408 C 784.226336 392.100979 660.122411 516.261398 506.988973 516.247394 C 353.908289 516.2632 229.773388 392.114168 229.767178 239.032597 L 145.553552 239.024838 C 145.550767 438.621225 307.39448 600.467756 506.995253 600.482898 Z M 506.995253 600.482898 " stroke="#000000" stroke-width="6.802" stroke-opacity="1" stroke-miterlimit="2.613"/></g></g></g></g><g clip-path="url(#151632b9ba)"><g clip-path="url(#e4c9fb6693)"><g clip-path="url(#0b63ea97f2)"><g clip-path="url(#9e5623edeb)"><path fill="#47b46b" d="M 66.292969 155.324219 C 84.597656 142.964844 109.429688 147.757812 121.753906 166.015625 L 110.042969 173.921875 C 102.074219 162.117188 86.015625 159.023438 74.183594 167.011719 C 62.351562 175 59.21875 191.042969 67.1875 202.851562 L 55.472656 210.757812 C 43.148438 192.5 47.992188 167.675781 66.292969 155.324219 " fill-opacity="1" fill-rule="evenodd"/></g></g></g></g><g clip-path="url(#40ea258b8c)"><g clip-path="url(#6732d46f2b)"><g clip-path="url(#b79008fd6d)"><g clip-path="url(#a95d667dff)"><path stroke-linecap="butt" transform="matrix(0.119542, -0.0806989, -0.0805124, -0.119265, 47.251005, 257.80806)" fill="none" stroke-linejoin="miter" d="M 506.988973 516.247394 C 660.122411 516.261398 784.226336 392.100979 784.220126 239.019408 L 686.252618 239.016249 C 686.253992 337.993755 605.974853 418.253436 506.993258 418.248638 C 408.011662 418.24384 327.77366 338.020573 327.757133 239.020568 L 229.767178 239.032597 C 229.773388 392.114168 353.908289 516.2632 506.988973 516.247394 Z M 506.988973 516.247394 " stroke="#000000" stroke-width="6.802" stroke-opacity="1" stroke-miterlimit="2.613"/></g></g></g></g><g clip-path="url(#05222e8096)"><g clip-path="url(#bf2d5c8725)"><g clip-path="url(#921a833dec)"><g clip-path="url(#f878cfe7fd)"><path fill="#5c85bc" d="M 74.183594 167.011719 C 86.015625 159.023438 102.074219 162.117188 110.042969 173.921875 L 99.101562 181.308594 C 95.203125 175.53125 87.34375 174.019531 81.554688 177.929688 C 75.761719 181.835938 74.226562 189.691406 78.125 195.46875 L 67.1875 202.851562 C 59.21875 191.042969 62.351562 175 74.183594 167.011719 " fill-opacity="1" fill-rule="evenodd"/></g></g></g></g><g clip-path="url(#f3be7ef536)"><g clip-path="url(#02d268a782)"><g clip-path="url(#f1e0247f1d)"><g clip-path="url(#2a7c2fab29)"><path stroke-linecap="butt" transform="matrix(0.119542, -0.0806989, -0.0805124, -0.119265, 47.251005, 257.80806)" fill="none" stroke-linejoin="miter" d="M 506.993258 418.248638 C 605.974853 418.253436 686.253992 337.993755 686.252618 239.016249 L 594.722632 239.013342 C 594.732247 287.44797 555.432753 326.714614 506.99729 326.70232 C 458.554534 326.727714 419.259134 287.450791 419.249518 239.016164 L 327.757133 239.020568 C 327.77366 338.020573 408.011662 418.24384 506.993258 418.248638 Z M 506.993258 418.248638 " stroke="#000000" stroke-width="6.802" stroke-opacity="1" stroke-miterlimit="2.613"/></g></g></g></g><g clip-path="url(#020f1d8113)"><g clip-path="url(#30de891f11)"><g clip-path="url(#5747aa05a8)"><g clip-path="url(#842b43c8da)"><path fill="#f6e7d7" d="M 127.476562 150.34375 C 126.382812 151.082031 125.394531 151.914062 124.503906 152.8125 C 119.414062 151.113281 113.613281 151.714844 108.820312 154.949219 C 102.082031 159.5 99.429688 167.835938 101.78125 175.191406 C 97.980469 179.214844 97.328125 185.46875 100.546875 190.238281 C 102.589844 193.261719 105.761719 195.0625 109.125 195.460938 C 109.394531 196.445312 109.820312 197.398438 110.421875 198.289062 C 113.382812 202.671875 119.34375 203.824219 123.738281 200.855469 C 125.808594 199.460938 127.164062 197.398438 127.703125 195.148438 C 131.222656 196.433594 135.285156 196.070312 138.636719 193.8125 C 141.761719 191.699219 143.589844 188.382812 143.917969 184.902344 C 145.722656 184.355469 147.476562 183.527344 149.125 182.417969 C 158.003906 176.421875 160.351562 164.386719 154.375 155.53125 C 148.394531 146.675781 136.351562 144.351562 127.476562 150.34375 Z M 39.21875 209.921875 C 40.308594 209.1875 41.449219 208.582031 42.617188 208.089844 C 42.941406 202.738281 45.667969 197.582031 50.46875 194.34375 C 57.207031 189.792969 65.929688 190.449219 71.871094 195.382812 C 77.023438 193.363281 83.066406 195.09375 86.289062 199.867188 C 88.328125 202.890625 88.8125 206.503906 87.925781 209.773438 C 88.738281 210.390625 89.460938 211.144531 90.0625 212.035156 C 93.023438 216.417969 91.859375 222.378906 87.464844 225.34375 C 85.398438 226.738281 82.980469 227.226562 80.691406 226.886719 C 80.566406 230.632812 78.707031 234.269531 75.363281 236.523438 C 72.234375 238.636719 68.476562 239.09375 65.121094 238.09375 C 63.933594 239.566406 62.515625 240.886719 60.871094 241.996094 C 51.992188 247.988281 39.953125 245.664062 33.972656 236.808594 C 27.992188 227.953125 30.34375 215.917969 39.21875 209.921875 " fill-opacity="1" fill-rule="evenodd"/></g></g></g></g><g clip-path="url(#c02f76b533)"><g clip-path="url(#f6768747fb)"><g clip-path="url(#72fb51be65)"><g clip-path="url(#fb64a58620)"><path stroke-linecap="butt" transform="matrix(0.119542, -0.0806989, -0.0805124, -0.119265, 47.251005, 257.80806)" fill="none" stroke-linejoin="miter" d="M 877.901081 307.035215 C 868.751842 307.035656 859.844997 306.086022 851.241723 304.374186 C 828.584703 333.952091 792.916887 353.042246 752.827026 353.049239 C 696.451711 353.03789 648.872517 315.33749 633.851785 263.827835 C 596.402528 255.432075 568.393131 221.947234 568.387287 181.960232 C 568.398418 156.602167 579.639844 133.896875 597.421281 118.524581 C 595.151468 111.806752 593.900773 104.661374 593.90266 97.192499 C 593.91549 60.435371 623.699735 30.620311 660.46954 30.632603 C 677.776376 30.614895 693.566607 37.224073 705.392728 48.087629 C 720.632217 27.000457 745.386641 13.296765 773.405095 13.269541 C 799.56093 13.290782 822.931543 25.284408 838.318854 44.055418 C 850.810974 40.188192 864.10233 38.138364 877.878659 38.118576 C 952.161856 38.131313 1012.340499 98.323232 1012.349106 172.567611 C 1012.335266 246.827179 952.146678 307.040642 877.901081 307.035215 Z M 139.606971 307.047128 C 148.718609 307.039377 157.621997 306.091699 166.243064 304.385221 C 188.86644 333.948571 224.537207 353.04598 264.687116 353.03111 C 321.062432 353.042459 368.641381 315.346479 383.644831 263.828067 C 421.087111 255.426451 449.100035 221.962538 449.101485 181.937849 C 449.09017 156.594973 437.856671 133.899762 420.077689 118.51568 C 422.352471 111.80157 423.580594 104.649323 423.582481 97.180447 C 423.595312 60.423319 393.781834 30.615628 357.027183 30.625834 C 339.742794 30.628354 323.953756 37.217677 312.118014 48.075622 C 296.867524 26.984855 272.074748 13.267798 244.116342 13.287143 C 217.938059 13.281091 194.570839 25.260091 179.167931 44.066896 C 166.631106 40.202 153.360878 38.110701 139.606996 38.1153 C 65.338952 38.125063 5.172811 98.323337 5.158971 172.582905 C 5.145131 246.842472 65.346221 307.019203 139.606971 307.047128 Z M 139.606971 307.047128 " stroke="#000000" stroke-width="6.802" stroke-opacity="1" stroke-miterlimit="2.613"/></g></g></g></g><g fill="#ffffff" fill-opacity="1"><g transform="translate(92.827286, 235.390165)"><g><path d="M 6.921875 0.25 L 6.921875 -26.203125 L 0.578125 -26.203125 L 1.03125 -31.046875 L 19.25 -31.046875 L 18.75 -26.203125 L 12.953125 -26.203125 L 12.953125 -0.25 Z M 6.921875 0.25 "/></g></g></g><g fill="#ffffff" fill-opacity="1"><g transform="translate(112.576227, 235.390165)"><g><path d="M 2.890625 0.25 L 2.890625 -30.5625 L 8.984375 -31.046875 L 8.984375 -18.46875 L 14.78125 -18.46875 L 14.78125 -30.5625 L 20.875 -31.046875 L 20.875 -0.25 L 14.78125 0.25 L 14.78125 -12.921875 L 8.984375 -12.921875 L 8.984375 -0.25 Z M 2.890625 0.25 "/></g></g></g><g fill="#ffffff" fill-opacity="1"><g transform="translate(136.341198, 235.390165)"><g><path d="M 2.890625 -31.046875 L 6.796875 -31.046875 C 9.910156 -31.046875 12.390625 -30.914062 14.234375 -30.65625 C 16.085938 -30.394531 17.722656 -29.585938 19.140625 -28.234375 C 20.566406 -26.878906 21.28125 -24.710938 21.28125 -21.734375 C 21.28125 -19.035156 20.679688 -16.988281 19.484375 -15.59375 C 18.285156 -14.195312 16.804688 -13.285156 15.046875 -12.859375 C 13.296875 -12.429688 11.273438 -12.21875 8.984375 -12.21875 L 8.984375 -0.25 L 2.890625 0.25 Z M 10.0625 -17.140625 C 11.664062 -17.140625 12.925781 -17.46875 13.84375 -18.125 C 14.769531 -18.789062 15.234375 -20.007812 15.234375 -21.78125 C 15.234375 -23.519531 14.804688 -24.691406 13.953125 -25.296875 C 13.097656 -25.898438 11.742188 -26.203125 9.890625 -26.203125 L 9.03125 -26.203125 L 9.03125 -17.140625 Z M 10.0625 -17.140625 "/></g></g></g><g fill="#ffffff" fill-opacity="1"><g transform="translate(158.408678, 235.390165)"><g><path d="M 6.921875 0.25 L 6.921875 -26.203125 L 0.578125 -26.203125 L 1.03125 -31.046875 L 19.25 -31.046875 L 18.75 -26.203125 L 12.953125 -26.203125 L 12.953125 -0.25 Z M 6.921875 0.25 "/></g></g></g><g fill="#ffffff" fill-opacity="1"><g transform="translate(178.15762, 235.390165)"><g/></g></g><g fill="#ffffff" fill-opacity="1"><g transform="translate(188.2598, 235.390165)"><g><path d="M 2.890625 -31.046875 L 9.859375 -31.046875 C 13.609375 -31.046875 16.335938 -30.316406 18.046875 -28.859375 C 19.765625 -27.398438 20.625 -25.46875 20.625 -23.0625 C 20.625 -21.539062 20.328125 -20.203125 19.734375 -19.046875 C 19.140625 -17.890625 18.316406 -17.046875 17.265625 -16.515625 C 18.585938 -15.828125 19.632812 -14.910156 20.40625 -13.765625 C 21.1875 -12.617188 21.578125 -10.925781 21.578125 -8.6875 C 21.578125 -2.894531 17.003906 0 7.859375 0 L 2.890625 0 Z M 10.234375 -18.421875 C 11.828125 -18.421875 13.015625 -18.679688 13.796875 -19.203125 C 14.585938 -19.734375 14.984375 -20.8125 14.984375 -22.4375 C 14.984375 -23.875 14.535156 -24.859375 13.640625 -25.390625 C 12.742188 -25.929688 11.523438 -26.203125 9.984375 -26.203125 L 8.78125 -26.203125 L 8.78125 -18.421875 Z M 10.109375 -4.84375 C 12.085938 -4.84375 13.519531 -5.332031 14.40625 -6.3125 C 15.289062 -7.289062 15.734375 -8.359375 15.734375 -9.515625 C 15.734375 -11.316406 15.253906 -12.515625 14.296875 -13.109375 C 13.347656 -13.703125 12.019531 -14 10.3125 -14 L 8.984375 -14 L 8.984375 -4.84375 Z M 10.109375 -4.84375 "/></g></g></g><g fill="#ffffff" fill-opacity="1"><g transform="translate(211.07252, 235.390165)"><g><path d="M 0.5 0 L 7.03125 -30.6875 L 15.6875 -31.046875 L 22.40625 -0.25 L 15.78125 0 L 14.65625 -6.671875 L 7.25 -6.671875 L 5.921875 0 Z M 8.359375 -11.640625 L 13.546875 -11.640625 L 10.6875 -26.5 Z M 8.359375 -11.640625 "/></g></g></g><g fill="#ffffff" fill-opacity="1"><g transform="translate(233.926645, 235.390165)"><g/></g></g><g fill="#ffffff" fill-opacity="1"><g transform="translate(244.028824, 235.390165)"><g><path d="M 9.359375 -31.046875 C 13.441406 -31.046875 16.488281 -29.75 18.5 -27.15625 C 20.519531 -24.5625 21.53125 -20.644531 21.53125 -15.40625 C 21.53125 -12.613281 21.148438 -10.054688 20.390625 -7.734375 C 19.628906 -5.421875 18.421875 -3.550781 16.765625 -2.125 C 15.109375 -0.707031 12.984375 0 10.390625 0 L 2.984375 0 L 2.984375 -13.578125 L 0.078125 -13.578125 L 0.078125 -17.46875 L 2.984375 -17.46875 L 2.984375 -31.046875 Z M 15.484375 -15.65625 C 15.484375 -17.5625 15.363281 -19.25 15.125 -20.71875 C 14.894531 -22.195312 14.359375 -23.476562 13.515625 -24.5625 C 12.671875 -25.65625 11.410156 -26.203125 9.734375 -26.203125 L 9.03125 -26.203125 L 9.03125 -17.46875 L 11.765625 -17.46875 L 11.765625 -13.578125 L 9.03125 -13.578125 L 9.03125 -4.84375 L 9.890625 -4.84375 C 11.992188 -4.84375 13.453125 -5.742188 14.265625 -7.546875 C 15.078125 -9.359375 15.484375 -11.59375 15.484375 -14.25 Z M 15.484375 -15.65625 "/></g></g></g><g fill="#ffffff" fill-opacity="1"><g transform="translate(267.048556, 235.390165)"><g><path d="M 2.890625 0.25 L 2.890625 -30.5625 L 8.984375 -31.046875 L 8.984375 -0.25 Z M 5.828125 -32.828125 L -1.65625 -39.125 L 2.59375 -43.0625 L 7.984375 -34.90625 Z M 5.828125 -32.828125 "/></g></g></g><g fill="#ffffff" fill-opacity="1"><g transform="translate(278.931048, 235.390165)"><g><path d="M 17.390625 0.25 L 8.328125 -19.171875 L 8.328125 -0.25 L 2.890625 0 L 2.890625 -30.8125 L 9.234375 -31.046875 L 17.265625 -12.59375 L 17.265625 -30.5625 L 22.40625 -31.046875 L 22.40625 -0.25 Z M 17.390625 0.25 "/></g></g></g><g fill="#ffffff" fill-opacity="1"><g transform="translate(304.227913, 235.390165)"><g><path d="M 2.890625 0.25 L 2.890625 -30.5625 L 8.984375 -31.046875 L 8.984375 -18.46875 L 14.78125 -18.46875 L 14.78125 -30.5625 L 20.875 -31.046875 L 20.875 -0.25 L 14.78125 0.25 L 14.78125 -12.921875 L 8.984375 -12.921875 L 8.984375 -0.25 Z M 2.890625 0.25 "/></g></g></g></svg>