<svg xmlns="http://www.w3.org/2000/svg" xmlns:xlink="http://www.w3.org/1999/xlink" width="400" zoomAndPan="magnify" viewBox="0 0 300 63.749997" height="85" preserveAspectRatio="xMidYMid meet" version="1.0"><defs><g/><clipPath id="b7601816ff"><path d="M 58 13.523438 L 107 13.523438 L 107 38 L 58 38 Z M 58 13.523438 " clip-rule="nonzero"/></clipPath><clipPath id="1b44d169c5"><path d="M 57 13.523438 L 108 13.523438 L 108 39 L 57 39 Z M 57 13.523438 " clip-rule="nonzero"/></clipPath><clipPath id="e54a0eb158"><path d="M 56.324219 31 L 108.621094 31 L 108.621094 49.382812 L 56.324219 49.382812 Z M 56.324219 31 " clip-rule="nonzero"/></clipPath><clipPath id="99df41045f"><path d="M 56.324219 30 L 108.621094 30 L 108.621094 49.382812 L 56.324219 49.382812 Z M 56.324219 30 " clip-rule="nonzero"/></clipPath></defs><g clip-path="url(#b7601816ff)"><path fill="#ed5353" d="M 82.367188 13.726562 C 95.464844 13.726562 106.078125 24.371094 106.078125 37.507812 L 101.007812 37.507812 C 101.007812 27.179688 92.664062 18.808594 82.367188 18.808594 C 72.074219 18.808594 63.726562 27.179688 63.726562 37.507812 L 58.660156 37.507812 C 58.660156 24.371094 69.273438 13.726562 82.367188 13.726562 " fill-opacity="1" fill-rule="evenodd"/></g><g clip-path="url(#1b44d169c5)"><path stroke-linecap="butt" transform="matrix(0.0515729, 0, 0, -0.0517341, 56.22116, 49.871934)" fill="none" stroke-linejoin="miter" d="M 506.972237 698.676499 C 760.936173 698.676499 966.728005 492.921697 966.728005 238.993844 L 868.414498 238.993844 C 868.414498 438.632632 706.628943 600.442738 506.972237 600.442738 C 307.391273 600.442738 145.529976 438.632632 145.529976 238.993844 L 47.292211 238.993844 C 47.292211 492.921697 253.084043 698.676499 506.972237 698.676499 Z M 506.972237 698.676499 " stroke="#000000" stroke-width="6.802" stroke-opacity="1" stroke-miterlimit="2.613"/></g><path fill="#feb46b" d="M 82.367188 18.808594 C 92.664062 18.808594 101.007812 27.179688 101.007812 37.507812 L 96.664062 37.507812 C 96.664062 29.585938 90.265625 23.164062 82.367188 23.164062 C 74.472656 23.164062 68.070312 29.585938 68.070312 37.507812 L 63.726562 37.507812 C 63.726562 27.179688 72.074219 18.808594 82.367188 18.808594 " fill-opacity="1" fill-rule="evenodd"/><path stroke-linecap="butt" transform="matrix(0.0515729, 0, 0, -0.0517341, 56.22116, 49.871934)" fill="none" stroke-linejoin="miter" d="M 506.972237 600.442738 C 706.628943 600.442738 868.414498 438.632632 868.414498 238.993844 L 784.189059 238.993844 C 784.189059 392.12072 660.12317 516.253159 506.972237 516.253159 C 353.897046 516.253159 229.755415 392.12072 229.755415 238.993844 L 145.529976 238.993844 C 145.529976 438.632632 307.391273 600.442738 506.972237 600.442738 Z M 506.972237 600.442738 " stroke="#000000" stroke-width="6.802" stroke-opacity="1" stroke-miterlimit="2.613"/><path fill="#47b46b" d="M 82.367188 23.164062 C 90.265625 23.164062 96.664062 29.585938 96.664062 37.507812 L 91.613281 37.507812 C 91.613281 32.386719 87.472656 28.234375 82.367188 28.234375 C 77.261719 28.234375 73.125 32.386719 73.125 37.507812 L 68.070312 37.507812 C 68.070312 29.585938 74.472656 23.164062 82.367188 23.164062 " fill-opacity="1" fill-rule="evenodd"/><path stroke-linecap="butt" transform="matrix(0.0515729, 0, 0, -0.0517341, 56.22116, 49.871934)" fill="none" stroke-linejoin="miter" d="M 506.972237 516.253159 C 660.12317 516.253159 784.189059 392.12072 784.189059 238.993844 L 686.254264 238.993844 C 686.254264 337.982668 605.967425 418.245917 506.972237 418.245917 C 407.977049 418.245917 327.765952 337.982668 327.765952 238.993844 L 229.755415 238.993844 C 229.755415 392.12072 353.897046 516.253159 506.972237 516.253159 Z M 506.972237 516.253159 " stroke="#000000" stroke-width="6.802" stroke-opacity="1" stroke-miterlimit="2.613"/><path fill="#5c85bc" d="M 82.367188 28.234375 C 87.472656 28.234375 91.613281 32.386719 91.613281 37.507812 L 86.894531 37.507812 C 86.894531 35 84.867188 32.96875 82.367188 32.96875 C 79.871094 32.96875 77.84375 35 77.84375 37.507812 L 73.125 37.507812 C 73.125 32.386719 77.261719 28.234375 82.367188 28.234375 " fill-opacity="1" fill-rule="evenodd"/><path stroke-linecap="butt" transform="matrix(0.0515729, 0, 0, -0.0517341, 56.22116, 49.871934)" fill="none" stroke-linejoin="miter" d="M 506.972237 418.245917 C 605.967425 418.245917 686.254264 337.982668 686.254264 238.993844 L 594.757564 238.993844 C 594.757564 287.46892 555.44731 326.732222 506.972237 326.732222 C 458.572906 326.732222 419.262652 287.46892 419.262652 238.993844 L 327.765952 238.993844 C 327.765952 337.982668 407.977049 418.245917 506.972237 418.245917 Z M 506.972237 418.245917 " stroke="#000000" stroke-width="6.802" stroke-opacity="1" stroke-miterlimit="2.613"/><g clip-path="url(#e54a0eb158)"><path fill="#f6e7d7" d="M 101.496094 33.988281 C 101.023438 33.988281 100.566406 34.035156 100.121094 34.125 C 98.953125 32.59375 97.113281 31.605469 95.046875 31.605469 C 92.140625 31.605469 89.683594 33.558594 88.910156 36.222656 C 86.980469 36.65625 85.535156 38.390625 85.535156 40.457031 C 85.535156 41.769531 86.117188 42.945312 87.03125 43.742188 C 86.914062 44.089844 86.851562 44.457031 86.851562 44.84375 C 86.851562 46.746094 88.386719 48.289062 90.285156 48.289062 C 91.175781 48.289062 91.988281 47.945312 92.601562 47.382812 C 93.386719 48.476562 94.664062 49.183594 96.109375 49.183594 C 97.457031 49.183594 98.660156 48.5625 99.457031 47.59375 C 100.101562 47.792969 100.785156 47.898438 101.496094 47.898438 C 105.328125 47.898438 108.429688 44.785156 108.429688 40.945312 C 108.429688 37.101562 105.328125 33.988281 101.496094 33.988281 Z M 63.421875 33.988281 C 63.890625 33.988281 64.351562 34.035156 64.796875 34.125 C 65.960938 32.59375 67.800781 31.605469 69.871094 31.605469 C 72.777344 31.605469 75.234375 33.558594 76.007812 36.222656 C 77.9375 36.65625 79.382812 38.390625 79.382812 40.457031 C 79.382812 41.769531 78.800781 42.945312 77.886719 43.742188 C 78.003906 44.089844 78.066406 44.457031 78.066406 44.84375 C 78.066406 46.746094 76.53125 48.289062 74.632812 48.289062 C 73.742188 48.289062 72.929688 47.945312 72.316406 47.382812 C 71.53125 48.476562 70.253906 49.183594 68.808594 49.183594 C 67.460938 49.183594 66.253906 48.5625 65.460938 47.59375 C 64.816406 47.792969 64.128906 47.898438 63.421875 47.898438 C 59.589844 47.898438 56.488281 44.785156 56.488281 40.945312 C 56.488281 37.101562 59.589844 33.988281 63.421875 33.988281 " fill-opacity="1" fill-rule="evenodd"/></g><g clip-path="url(#99df41045f)"><path stroke-linecap="butt" transform="matrix(0.0515729, 0, 0, -0.0517341, 56.22116, 49.871934)" fill="none" stroke-linejoin="miter" d="M 877.882286 307.025065 C 868.717467 307.025065 859.855618 306.118988 851.220996 304.382342 C 828.574048 333.980831 792.899424 353.083938 752.831747 353.083938 C 696.479475 353.083938 648.837567 315.330763 633.840591 263.835433 C 596.423895 255.454228 568.399243 221.929409 568.399243 181.98655 C 568.399243 156.616417 579.684846 133.889006 597.408545 118.48571 C 595.136276 111.765645 593.924399 104.668049 593.924399 97.19292 C 593.924399 60.421328 623.691123 30.59632 660.501881 30.59632 C 677.771126 30.59632 693.525525 37.240879 705.417066 48.113793 C 720.641269 26.972015 745.409001 13.305366 773.433653 13.305366 C 799.564746 13.305366 822.893375 25.310875 838.344805 44.03645 C 850.842284 40.185626 864.097187 38.146955 877.882286 38.146955 C 952.185483 38.146955 1012.32487 98.325515 1012.32487 172.548257 C 1012.32487 246.846504 952.185483 307.025065 877.882286 307.025065 Z M 139.622076 307.025065 C 148.711152 307.025065 157.648744 306.118988 166.283366 304.382342 C 188.854572 333.980831 224.529196 353.083938 264.672615 353.083938 C 321.024887 353.083938 368.666795 315.330763 383.663771 263.835433 C 421.080467 255.454228 449.105119 221.929409 449.105119 181.98655 C 449.105119 156.616417 437.819516 133.889006 420.095817 118.48571 C 422.368086 111.765645 423.579963 104.668049 423.579963 97.19292 C 423.579963 60.421328 393.813239 30.59632 357.002481 30.59632 C 339.733236 30.59632 323.978837 37.240879 312.087296 48.113793 C 296.863093 26.972015 272.095361 13.305366 244.070709 13.305366 C 217.939616 13.305366 194.535245 25.310875 179.159557 44.03645 C 166.662078 40.185626 153.331433 38.146955 139.622076 38.146955 C 65.318879 38.146955 5.179492 98.325515 5.179492 172.548257 C 5.179492 246.846504 65.318879 307.025065 139.622076 307.025065 Z M 139.622076 307.025065 " stroke="#000000" stroke-width="6.802" stroke-opacity="1" stroke-miterlimit="2.613"/></g><g fill="#b22b2b" fill-opacity="1"><g transform="translate(115.264262, 37.061634)"><g><path d="M 2.484375 0.09375 L 2.484375 -9.421875 L 0.203125 -9.421875 L 0.375 -11.15625 L 6.921875 -11.15625 L 6.734375 -9.421875 L 4.65625 -9.421875 L 4.65625 -0.09375 Z M 2.484375 0.09375 "/></g></g></g><g fill="#b22b2b" fill-opacity="1"><g transform="translate(122.357919, 37.061634)"><g><path d="M 1.046875 0.09375 L 1.046875 -10.984375 L 3.234375 -11.15625 L 3.234375 -6.640625 L 5.3125 -6.640625 L 5.3125 -10.984375 L 7.5 -11.15625 L 7.5 -0.09375 L 5.3125 0.09375 L 5.3125 -4.640625 L 3.234375 -4.640625 L 3.234375 -0.09375 Z M 1.046875 0.09375 "/></g></g></g><g fill="#b22b2b" fill-opacity="1"><g transform="translate(130.894099, 37.061634)"><g><path d="M 1.046875 -11.15625 L 2.4375 -11.15625 C 3.5625 -11.15625 4.453125 -11.109375 5.109375 -11.015625 C 5.773438 -10.921875 6.363281 -10.628906 6.875 -10.140625 C 7.382812 -9.660156 7.640625 -8.882812 7.640625 -7.8125 C 7.640625 -6.84375 7.425781 -6.101562 7 -5.59375 C 6.570312 -5.09375 6.039062 -4.765625 5.40625 -4.609375 C 4.78125 -4.460938 4.054688 -4.390625 3.234375 -4.390625 L 3.234375 -0.09375 L 1.046875 0.09375 Z M 3.609375 -6.15625 C 4.191406 -6.15625 4.644531 -6.273438 4.96875 -6.515625 C 5.300781 -6.753906 5.46875 -7.191406 5.46875 -7.828125 C 5.46875 -8.453125 5.3125 -8.875 5 -9.09375 C 4.695312 -9.3125 4.21875 -9.421875 3.5625 -9.421875 L 3.25 -9.421875 L 3.25 -6.15625 Z M 3.609375 -6.15625 "/></g></g></g><g fill="#b22b2b" fill-opacity="1"><g transform="translate(138.820549, 37.061634)"><g><path d="M 2.484375 0.09375 L 2.484375 -9.421875 L 0.203125 -9.421875 L 0.375 -11.15625 L 6.921875 -11.15625 L 6.734375 -9.421875 L 4.65625 -9.421875 L 4.65625 -0.09375 Z M 2.484375 0.09375 "/></g></g></g><g fill="#b22b2b" fill-opacity="1"><g transform="translate(145.914205, 37.061634)"><g/></g></g><g fill="#b22b2b" fill-opacity="1"><g transform="translate(149.542824, 37.061634)"><g><path d="M 1.046875 -11.15625 L 3.546875 -11.15625 C 4.890625 -11.15625 5.867188 -10.890625 6.484375 -10.359375 C 7.097656 -9.835938 7.40625 -9.144531 7.40625 -8.28125 C 7.40625 -7.738281 7.296875 -7.257812 7.078125 -6.84375 C 6.867188 -6.425781 6.578125 -6.125 6.203125 -5.9375 C 6.679688 -5.6875 7.054688 -5.351562 7.328125 -4.9375 C 7.609375 -4.53125 7.75 -3.925781 7.75 -3.125 C 7.75 -1.039062 6.109375 0 2.828125 0 L 1.046875 0 Z M 3.671875 -6.625 C 4.242188 -6.625 4.671875 -6.71875 4.953125 -6.90625 C 5.242188 -7.09375 5.390625 -7.476562 5.390625 -8.0625 C 5.390625 -8.570312 5.226562 -8.925781 4.90625 -9.125 C 4.582031 -9.320312 4.140625 -9.421875 3.578125 -9.421875 L 3.15625 -9.421875 L 3.15625 -6.625 Z M 3.625 -1.734375 C 4.34375 -1.734375 4.859375 -1.910156 5.171875 -2.265625 C 5.492188 -2.617188 5.65625 -3.003906 5.65625 -3.421875 C 5.65625 -4.066406 5.484375 -4.492188 5.140625 -4.703125 C 4.796875 -4.921875 4.316406 -5.03125 3.703125 -5.03125 L 3.234375 -5.03125 L 3.234375 -1.734375 Z M 3.625 -1.734375 "/></g></g></g><g fill="#b22b2b" fill-opacity="1"><g transform="translate(157.736966, 37.061634)"><g><path d="M 0.171875 0 L 2.53125 -11.015625 L 5.640625 -11.15625 L 8.046875 -0.09375 L 5.671875 0 L 5.265625 -2.390625 L 2.609375 -2.390625 L 2.125 0 Z M 3 -4.1875 L 4.859375 -4.1875 L 3.84375 -9.515625 Z M 3 -4.1875 "/></g></g></g><g fill="#b22b2b" fill-opacity="1"><g transform="translate(165.945972, 37.061634)"><g/></g></g><g fill="#b22b2b" fill-opacity="1"><g transform="translate(169.574591, 37.061634)"><g><path d="M 3.359375 -11.15625 C 4.828125 -11.15625 5.921875 -10.6875 6.640625 -9.75 C 7.367188 -8.820312 7.734375 -7.414062 7.734375 -5.53125 C 7.734375 -4.53125 7.597656 -3.613281 7.328125 -2.78125 C 7.054688 -1.945312 6.617188 -1.273438 6.015625 -0.765625 C 5.421875 -0.253906 4.660156 0 3.734375 0 L 1.078125 0 L 1.078125 -4.875 L 0.03125 -4.875 L 0.03125 -6.28125 L 1.078125 -6.28125 L 1.078125 -11.15625 Z M 5.5625 -5.625 C 5.5625 -6.3125 5.519531 -6.914062 5.4375 -7.4375 C 5.351562 -7.96875 5.160156 -8.429688 4.859375 -8.828125 C 4.554688 -9.222656 4.101562 -9.421875 3.5 -9.421875 L 3.25 -9.421875 L 3.25 -6.28125 L 4.21875 -6.28125 L 4.21875 -4.875 L 3.25 -4.875 L 3.25 -1.734375 L 3.5625 -1.734375 C 4.3125 -1.734375 4.832031 -2.054688 5.125 -2.703125 C 5.414062 -3.359375 5.5625 -4.160156 5.5625 -5.109375 Z M 5.5625 -5.625 "/></g></g></g><g fill="#b22b2b" fill-opacity="1"><g transform="translate(177.84308, 37.061634)"><g><path d="M 1.046875 0.09375 L 1.046875 -10.984375 L 3.234375 -11.15625 L 3.234375 -0.09375 Z M 2.09375 -11.796875 L -0.59375 -14.0625 L 0.9375 -15.46875 L 2.875 -12.546875 Z M 2.09375 -11.796875 "/></g></g></g><g fill="#b22b2b" fill-opacity="1"><g transform="translate(182.11117, 37.061634)"><g><path d="M 6.25 0.09375 L 2.984375 -6.890625 L 2.984375 -0.09375 L 1.046875 0 L 1.046875 -11.0625 L 3.3125 -11.15625 L 6.203125 -4.515625 L 6.203125 -10.984375 L 8.046875 -11.15625 L 8.046875 -0.09375 Z M 6.25 0.09375 "/></g></g></g><g fill="#b22b2b" fill-opacity="1"><g transform="translate(191.197587, 37.061634)"><g><path d="M 1.046875 0.09375 L 1.046875 -10.984375 L 3.234375 -11.15625 L 3.234375 -6.640625 L 5.3125 -6.640625 L 5.3125 -10.984375 L 7.5 -11.15625 L 7.5 -0.09375 L 5.3125 0.09375 L 5.3125 -4.640625 L 3.234375 -4.640625 L 3.234375 -0.09375 Z M 1.046875 0.09375 "/></g></g></g></svg>